<svg width="95" height="24" viewBox="0 0 95 24" fill="none" xmlns="http://www.w3.org/2000/svg">
<g id="1delta logo">
<path id="Vector" d="M26.7379 22.7706C26.7379 23.1633 26.4328 23.4835 26.0462 23.5046H18.5315C18.5194 23.5046 18.5073 23.5046 18.4953 23.5046C18.2023 23.5046 17.9516 23.3355 17.8338 23.0878V23.0817L11.5635 12.1299H11.5514C11.4518 11.8369 11.1799 11.6285 10.8567 11.6285C10.6061 11.6285 10.3856 11.7523 10.2557 11.9426H10.2436L6.21444 18.9982C6.11175 19.125 6.05134 19.2851 6.05134 19.4603C6.05134 19.865 6.38056 20.1943 6.78529 20.1943H10.6061C10.8507 20.1943 11.0682 20.3151 11.2011 20.5023V20.5084L11.2675 20.6232L12.2944 22.4082C12.3518 22.5169 12.3881 22.6378 12.3881 22.7676C12.3881 23.1391 12.1102 23.4472 11.7508 23.4955L11.7478 23.5016H1.3456C1.32747 23.5016 1.31237 23.5016 1.29425 23.5016C0.889521 23.5016 0.560303 23.1724 0.560303 22.7676C0.560303 22.6498 0.587484 22.5381 0.638831 22.4414L12.965 0.942419C13.0767 0.679647 13.3365 0.495392 13.6415 0.495392C13.9103 0.495392 14.1429 0.637366 14.2698 0.851812L14.2879 0.882008L26.6473 22.4022C26.7107 22.5109 26.7469 22.6347 26.7469 22.7706H26.7379Z" fill="#F9F9F9"/>
<g id="Group">
<path id="Vector_2" d="M31.1875 5.47604L35.5157 3.97188H37.3974V20.4329H35.2348V6.32476L31.7312 7.36075L31.1905 5.47904L31.1875 5.47604Z" fill="#F9F9F9"/>
<path id="Vector_3" d="M50.5179 10.6953V3.96893H52.5626V20.43H50.5179V18.4063C49.5151 19.9588 48.0321 20.735 46.0749 20.735C44.4137 20.735 43.0092 20.14 41.8645 18.947C40.7047 17.7388 40.1248 16.2739 40.1248 14.5493C40.1248 12.8247 40.7047 11.384 41.8645 10.1758C43.0243 8.96766 44.4288 8.36659 46.0749 8.36659C48.0351 8.36659 49.5151 9.14284 50.5179 10.6953ZM46.3316 18.7597C47.5216 18.7597 48.5184 18.361 49.3188 17.5606C50.1192 16.73 50.5179 15.7272 50.5179 14.5493C50.5179 13.3714 50.1192 12.3626 49.3188 11.5622C48.5184 10.7467 47.5247 10.3389 46.3316 10.3389C45.1386 10.3389 44.169 10.7467 43.3686 11.5622C42.5682 12.3626 42.1695 13.3563 42.1695 14.5493C42.1695 15.7424 42.5682 16.727 43.3686 17.5606C44.169 18.361 45.1567 18.7597 46.3316 18.7597Z" fill="#F9F9F9"/>
<path id="Vector_4" d="M66.9551 15.4917H57.1026C57.305 16.5277 57.7852 17.3372 58.5373 17.9262C59.2894 18.5151 60.2317 18.8081 61.3583 18.8081C62.9108 18.8081 64.0404 18.2373 64.7442 17.0925L66.4839 18.0802C65.3241 19.8532 63.5995 20.7381 61.31 20.7381C59.4585 20.7381 57.9393 20.1582 56.7492 18.9984C55.5894 17.8084 55.0095 16.3254 55.0095 14.5554C55.0095 12.7855 55.5804 11.2934 56.7251 10.1336C57.8698 8.95869 59.3498 8.36971 61.1711 8.36971C62.8957 8.36971 64.2972 8.97982 65.3815 10.2031C66.4779 11.3961 67.0276 12.8519 67.0276 14.5766C67.0276 14.8756 67.0034 15.1807 66.9581 15.4948L66.9551 15.4917ZM61.1711 10.2937C60.0898 10.2937 59.1837 10.5987 58.4558 11.2119C57.7279 11.825 57.2748 12.6556 57.1026 13.7037H64.9556C64.7834 12.6224 64.3515 11.7827 63.6629 11.1877C62.9742 10.5927 62.1436 10.2937 61.1711 10.2937Z" fill="#F9F9F9"/>
<path id="Vector_5" d="M71.4223 20.43H69.3775V3.26221H71.4223V20.43Z" fill="#F9F9F9"/>
<path id="Vector_6" d="M80.9487 8.67456V10.6499H77.8226V17.0229C77.8226 17.6028 77.9374 18.0135 78.1639 18.2582C78.3904 18.5028 78.7408 18.6267 79.212 18.6357C79.6831 18.6448 80.2631 18.6327 80.9517 18.5995V20.4329C79.1485 20.6685 77.8347 20.5174 77.0131 19.9859C76.1916 19.4543 75.7778 18.4666 75.7778 17.0229V10.6499H73.4491V8.67456H75.7778V5.99247L77.8226 5.38237V8.67456H80.9487Z" fill="#F9F9F9"/>
<path id="Vector_7" d="M92.5163 10.6955V8.67182H94.5611V20.4301H92.5163V18.4065C91.5136 19.959 90.0306 20.7352 88.0734 20.7352C86.4122 20.7352 85.0077 20.1402 83.863 18.9471C82.7031 17.739 82.1232 16.2741 82.1232 14.5495C82.1232 12.8248 82.7031 11.3841 83.863 10.176C85.0228 8.96783 86.4273 8.36676 88.0734 8.36676C90.0336 8.36676 91.5136 9.143 92.5163 10.6955ZM88.3301 18.7599C89.5201 18.7599 90.5168 18.3612 91.3172 17.5608C92.1176 16.7302 92.5163 15.7274 92.5163 14.5495C92.5163 13.3715 92.1176 12.3627 91.3172 11.5623C90.5168 10.7468 89.5231 10.3391 88.3301 10.3391C87.137 10.3391 86.1675 10.7468 85.3671 11.5623C84.5667 12.3627 84.168 13.3564 84.168 14.5495C84.168 15.7425 84.5667 16.7271 85.3671 17.5608C86.1675 18.3612 87.1552 18.7599 88.3301 18.7599Z" fill="#F9F9F9"/>
</g>
</g>
</svg>
